<svg width="435" height="208" viewBox="0 0 435 208" fill="none" xmlns="http://www.w3.org/2000/svg">
<g filter="url(#filter0_ddddd_12_365)">
<rect width="427" height="200" transform="translate(4)" fill="black" fill-opacity="0.03"/>
<mask id="mask0_12_365" style="mask-type:alpha" maskUnits="userSpaceOnUse" x="4" y="116" width="358" height="84">
<rect x="4" y="116.19" width="357.821" height="83.8095" fill="#D9D9D9"/>
</mask>
<g mask="url(#mask0_12_365)">
<path d="M19.1719 214.578C13.0195 214.578 9.94336 212.869 9.94336 209.451C9.94336 205.936 11.9941 204.178 16.0957 204.178C22.248 204.178 26.5938 203.25 29.1328 201.395C34.1133 197.781 37.043 191.58 37.9219 182.791C38.1172 180.74 38.3125 177.615 38.5078 173.416C38.8008 169.217 39.0938 164.334 39.3867 158.768C39.7773 153.104 40.1191 146.902 40.4121 140.164C40.7051 133.328 40.998 126.346 41.291 119.217C41.6816 111.99 42.0234 104.764 42.3164 97.5372C42.6094 90.3106 42.8535 83.4259 43.0488 76.8829C43.5371 60.5743 43.7812 50.2716 43.7812 45.9747C43.7812 41.6778 43.4395 38.3087 42.7559 35.8673C42.1699 33.4259 41.291 31.4239 40.1191 29.8614C37.9707 27.127 34.5039 25.4181 29.7188 24.7345C21.3203 23.5626 17.1211 21.756 17.1211 19.3145C17.1211 17.6544 17.707 16.336 18.8789 15.3595C20.1484 14.2852 21.7598 13.7481 23.7129 13.7481L46.7109 15.7989L59.6016 15.213C61.9453 15.213 63.8984 16.2384 65.4609 18.2892C67.0234 20.2423 68.7812 23.172 70.7344 27.0782L141.633 174.002C143.293 170.193 145.49 165.164 148.225 158.914C150.959 152.664 153.938 145.731 157.16 138.113C160.48 130.496 163.996 122.44 167.707 113.943C171.418 105.447 175.08 97.0001 178.693 88.6017C182.307 80.2032 185.773 72.1466 189.094 64.4317C192.414 56.7169 195.344 49.881 197.883 43.9239C200.422 37.8692 202.521 32.9376 204.182 29.129C205.842 25.3204 206.965 22.6349 207.551 21.0724C208.234 19.4122 209.504 17.8985 211.359 16.5313C213.215 15.1642 215.412 14.4806 217.951 14.4806L231.721 15.0665L249.299 13.7481C256.623 13.7481 260.285 15.5548 260.285 19.1681C260.285 20.9259 258.674 22.1466 255.451 22.8302C252.229 23.4161 249.494 23.9532 247.248 24.4415C245.002 24.9298 242.902 25.6622 240.949 26.6388C236.457 29.0802 234.211 33.1329 234.211 38.797L241.682 182.205C242.463 194.803 247.199 201.932 255.891 203.592C258.332 203.983 260.725 204.178 263.068 204.178C267.268 204.178 269.367 205.936 269.367 209.451C269.367 212.869 266.291 214.578 260.139 214.578C257.697 214.578 255.598 214.432 253.84 214.139C252.082 213.943 250.324 213.748 248.566 213.553C243.293 212.772 238.508 212.381 234.211 212.381L203.01 214.578C196.662 214.578 193.488 212.772 193.488 209.158C193.488 206.131 195.783 204.617 200.373 204.617C204.963 204.617 208.283 204.275 210.334 203.592C212.482 202.811 214.045 201.639 215.021 200.076C216.389 197.733 217.072 192.215 217.072 183.524V169.754C217.072 163.113 216.584 149.637 215.607 129.324C214.631 109.012 213.947 94.5099 213.557 85.8185C212.775 67.4591 212.043 53.5431 211.359 44.0704L142.072 202.859C139.533 208.621 137.238 211.502 135.188 211.502C133.82 211.502 132.648 210.818 131.672 209.451C130.793 207.986 129.572 205.691 128.01 202.566L57.1113 56.5216C53.4004 106.229 51.5449 151.688 51.5449 192.899C51.5449 200.906 58.0391 204.91 71.0273 204.91C74.543 204.91 76.3008 206.326 76.3008 209.158C76.3008 212.772 73.127 214.578 66.7793 214.578L43.0488 212.381C38.0684 212.381 33.3809 212.723 28.9863 213.406C24.5918 214.188 21.3203 214.578 19.1719 214.578ZM215.754 33.963L215.9 33.8165L215.754 33.963Z" fill="white"/>
</g>
<mask id="mask1_12_365" style="mask-type:alpha" maskUnits="userSpaceOnUse" x="32" y="0" width="271" height="123">
<path d="M32.6257 0H302.184V90.9524L199.013 72.8571L139.376 122.381H38.5894L32.6257 0Z" fill="#D9D9D9"/>
</mask>
<g mask="url(#mask1_12_365)">
<path d="M19.1719 214.578C13.0195 214.578 9.94336 212.869 9.94336 209.451C9.94336 205.936 11.9941 204.178 16.0957 204.178C22.248 204.178 26.5938 203.25 29.1328 201.395C34.1133 197.781 37.043 191.58 37.9219 182.791C38.1172 180.74 38.3125 177.615 38.5078 173.416C38.8008 169.217 39.0938 164.334 39.3867 158.768C39.7773 153.104 40.1191 146.902 40.4121 140.164C40.7051 133.328 40.998 126.346 41.291 119.217C41.6816 111.99 42.0234 104.764 42.3164 97.5372C42.6094 90.3106 42.8535 83.4259 43.0488 76.8829C43.5371 60.5743 43.7812 50.2716 43.7812 45.9747C43.7812 41.6778 43.4395 38.3087 42.7559 35.8673C42.1699 33.4259 41.291 31.4239 40.1191 29.8614C37.9707 27.127 34.5039 25.4181 29.7188 24.7345C21.3203 23.5626 17.1211 21.756 17.1211 19.3145C17.1211 17.6544 17.707 16.336 18.8789 15.3595C20.1484 14.2852 21.7598 13.7481 23.7129 13.7481L46.7109 15.7989L59.6016 15.213C61.9453 15.213 63.8984 16.2384 65.4609 18.2892C67.0234 20.2423 68.7812 23.172 70.7344 27.0782L141.633 174.002C143.293 170.193 145.49 165.164 148.225 158.914C150.959 152.664 153.938 145.731 157.16 138.113C160.48 130.496 163.996 122.44 167.707 113.943C171.418 105.447 175.08 97.0001 178.693 88.6017C182.307 80.2032 185.773 72.1466 189.094 64.4317C192.414 56.7169 195.344 49.881 197.883 43.9239C200.422 37.8692 202.521 32.9376 204.182 29.129C205.842 25.3204 206.965 22.6349 207.551 21.0724C208.234 19.4122 209.504 17.8985 211.359 16.5313C213.215 15.1642 215.412 14.4806 217.951 14.4806L231.721 15.0665L249.299 13.7481C256.623 13.7481 260.285 15.5548 260.285 19.1681C260.285 20.9259 258.674 22.1466 255.451 22.8302C252.229 23.4161 249.494 23.9532 247.248 24.4415C245.002 24.9298 242.902 25.6622 240.949 26.6388C236.457 29.0802 234.211 33.1329 234.211 38.797L241.682 182.205C242.463 194.803 247.199 201.932 255.891 203.592C258.332 203.983 260.725 204.178 263.068 204.178C267.268 204.178 269.367 205.936 269.367 209.451C269.367 212.869 266.291 214.578 260.139 214.578C257.697 214.578 255.598 214.432 253.84 214.139C252.082 213.943 250.324 213.748 248.566 213.553C243.293 212.772 238.508 212.381 234.211 212.381L203.01 214.578C196.662 214.578 193.488 212.772 193.488 209.158C193.488 206.131 195.783 204.617 200.373 204.617C204.963 204.617 208.283 204.275 210.334 203.592C212.482 202.811 214.045 201.639 215.021 200.076C216.389 197.733 217.072 192.215 217.072 183.524V169.754C217.072 163.113 216.584 149.637 215.607 129.324C214.631 109.012 213.947 94.5099 213.557 85.8185C212.775 67.4591 212.043 53.5431 211.359 44.0704L142.072 202.859C139.533 208.621 137.238 211.502 135.188 211.502C133.82 211.502 132.648 210.818 131.672 209.451C130.793 207.986 129.572 205.691 128.01 202.566L57.1113 56.5216C53.4004 106.229 51.5449 151.688 51.5449 192.899C51.5449 200.906 58.0391 204.91 71.0273 204.91C74.543 204.91 76.3008 206.326 76.3008 209.158C76.3008 212.772 73.127 214.578 66.7793 214.578L43.0488 212.381C38.0684 212.381 33.3809 212.723 28.9863 213.406C24.5918 214.188 21.3203 214.578 19.1719 214.578ZM215.754 33.963L215.9 33.8165L215.754 33.963Z" fill="white"/>
<path d="M171.185 69.3739C171.182 69.9716 171.219 70.5342 171.298 71.0619C171.389 71.5779 171.432 72.1405 171.429 72.7499C171.425 73.3475 171.23 73.6456 170.843 73.6441C170.445 73.6426 170.247 73.3664 170.25 72.8156C170.254 72.2414 170.151 71.8309 169.942 71.584C169.581 71.1841 168.991 70.7893 168.173 70.3994C167.355 70.0095 166.59 69.6491 165.877 69.3183C165.164 68.9757 164.335 68.5857 163.388 68.1485C162.43 67.7112 161.366 67.2324 160.197 66.7123C159.017 66.1804 157.767 65.6248 156.446 65.0454C152.974 63.532 150.643 62.5328 149.45 62.0477C148.246 61.5626 147.58 61.2963 147.451 61.2489C147.323 61.1898 147.206 61.1308 147.101 61.0718C146.855 60.9185 146.733 60.7891 146.734 60.6837C146.734 60.5782 146.753 60.4904 146.788 60.4202C146.812 60.35 146.865 60.274 146.948 60.1923C147.171 60.0174 147.506 59.8429 147.953 59.6688C148.388 59.4947 148.981 59.2627 149.732 58.9726C150.484 58.6708 151.336 58.3284 152.288 57.9454C153.239 57.5623 154.261 57.1561 155.354 56.7267C156.446 56.2974 157.539 55.868 158.631 55.4386C159.712 54.9975 160.763 54.5738 161.785 54.1676C162.807 53.7497 163.73 53.3782 164.552 53.0533C167.007 52.055 168.476 51.4161 168.958 51.1367C169.44 50.8573 169.776 50.6242 169.964 50.4375C170.247 50.1456 170.391 49.7126 170.394 49.1383C170.397 48.5641 170.598 48.2778 170.997 48.2793C171.384 48.2808 171.575 48.6507 171.57 49.389C171.568 49.7054 171.549 49.9807 171.512 50.2149C171.488 50.4375 171.463 50.6659 171.438 50.9002C171.34 51.5795 171.29 52.1828 171.286 52.7102L171.53 56.1037C171.525 56.8654 171.306 57.2454 170.872 57.2437C170.521 57.2424 170.346 57.0308 170.349 56.6089L170.478 55.5547C170.481 55.1094 170.389 54.8161 170.202 54.6747C170.004 54.5333 169.758 54.4621 169.465 54.461C168.914 54.4588 168.058 54.6899 166.895 55.1541L163.23 56.599L163.17 66.3546C163.872 66.6386 164.515 66.9048 165.099 67.1531C165.684 67.3898 166.251 67.6088 166.8 67.8101C167.689 68.1299 168.391 68.2909 168.907 68.2928C169.411 68.2948 169.786 68.2084 170.033 68.0335C170.269 67.8469 170.388 67.5017 170.391 66.9978L170.31 65.9428C170.312 65.5209 170.483 65.3106 170.823 65.312C171.257 65.3136 171.471 65.6953 171.467 66.457L171.185 69.3739ZM161.732 57.1908L151.23 61.3339C153.276 62.1504 156.759 63.6111 161.68 65.7161L161.732 57.1908ZM171.589 46.2777C171.585 46.9222 171.366 47.2437 170.933 47.242C170.593 47.2407 170.424 47.0291 170.427 46.6072L170.52 45.7462C170.524 45.0431 170.135 44.567 169.351 44.3179C168.684 44.1161 167.489 44.0119 165.767 44.0052L153.357 43.9572C151.634 43.9506 150.509 44.0282 149.98 44.1903C149.44 44.3522 149.076 44.5501 148.887 44.7837C148.686 45.0056 148.585 45.2982 148.583 45.6614L148.648 46.523C148.645 46.9449 148.474 47.1552 148.134 47.1539C147.701 47.1522 147.486 46.8291 147.49 46.1846C147.494 45.54 147.544 44.9309 147.641 44.357C147.739 43.7714 147.789 43.1681 147.793 42.547C147.797 41.9142 147.754 41.3164 147.663 40.7536C147.573 40.179 147.53 39.5753 147.534 38.9425C147.537 38.298 147.756 37.9766 148.19 37.9782C148.53 37.9796 148.698 38.1911 148.696 38.613L148.62 39.4565C148.616 40.1713 149.006 40.6533 149.789 40.9024C150.409 41.0923 151.604 41.1907 153.374 41.1975L163.305 41.2359C165.871 41.2458 167.999 41.1955 169.687 41.0848C169.927 40.2302 170.049 39.2874 170.056 38.2561C170.062 37.2132 170.009 36.3106 169.896 35.5485C169.784 34.7746 169.612 34.1059 169.381 33.5426C168.954 32.4862 168.226 31.6631 167.199 31.0732C166.778 30.8372 166.569 30.602 166.57 30.3676C166.572 30.1332 166.742 30.0167 167.082 30.018C167.223 30.0186 167.404 30.0603 167.626 30.1432C167.93 30.2381 168.387 30.3746 168.995 30.5528C169.592 30.7309 170.054 30.8791 170.381 30.9976C170.697 31.1043 170.96 31.2283 171.17 31.3698C171.566 31.6526 171.763 32.0459 171.76 32.5498C171.757 33.042 171.749 33.5107 171.734 33.9559C171.731 34.4013 171.717 34.8699 171.69 35.362C171.676 35.8424 171.649 36.3638 171.611 36.9262C171.584 37.4886 171.551 38.1271 171.511 38.8418C171.472 39.5565 171.433 40.1775 171.394 40.7047C171.368 41.2319 171.353 41.7592 171.35 42.2865C171.346 42.8021 171.356 43.2358 171.377 43.5874C171.41 43.9274 171.437 44.2381 171.459 44.5194C171.493 44.8008 171.52 45.0763 171.542 45.3459C171.576 45.6155 171.591 45.9262 171.589 46.2777ZM171.709 26.573C171.704 27.3347 171.485 27.7147 171.051 27.713C170.711 27.7117 170.543 27.5001 170.545 27.0783L170.638 26.2173C170.642 25.5845 170.34 25.1439 169.732 24.8954C169.054 24.6233 167.772 24.4836 165.885 24.4763L153.475 24.5162C151.541 24.5087 150.328 24.6095 149.834 24.8185C149.329 25.0158 149.017 25.2255 148.899 25.4477C148.768 25.6581 148.702 25.9157 148.701 26.2204L148.766 27.082C148.763 27.5038 148.592 27.7141 148.252 27.7128C147.818 27.7111 147.604 27.388 147.608 26.7435C147.611 26.099 147.662 25.4898 147.759 24.916C147.857 24.3304 147.907 23.7212 147.911 23.0884C147.915 22.4556 147.872 21.8519 147.781 21.2774C147.691 20.7028 147.648 20.0991 147.652 19.4663C147.656 18.8218 147.874 18.5004 148.308 18.502C148.648 18.5033 148.816 18.7149 148.814 19.1368L148.738 19.9803C148.735 20.6131 149.037 21.0537 149.644 21.3021C150.323 21.5743 151.605 21.714 153.492 21.7213L165.902 21.6814C167.789 21.6887 168.991 21.582 169.508 21.3613C170.025 21.129 170.348 20.8958 170.479 20.662C170.609 20.4281 170.675 20.1588 170.677 19.8541L170.594 19.0101C170.597 18.5882 170.768 18.3779 171.108 18.3792C171.541 18.3809 171.756 18.7567 171.751 19.5067C171.749 19.8934 171.711 20.3034 171.638 20.7368C171.395 22.2007 171.347 23.4485 171.493 24.4804C171.639 25.5005 171.711 26.198 171.709 26.573Z" fill="white"/>
</g>
<path d="M240.727 102.909C240.727 101.14 241.055 99.5165 241.711 98.04C242.379 96.5517 243.276 95.2744 244.401 94.2079C245.538 93.1298 246.85 92.2978 248.338 91.7119C249.827 91.1142 251.432 90.8154 253.155 90.8154C254.877 90.8154 256.477 91.1318 257.954 91.7646C259.43 92.3857 260.696 93.247 261.75 94.3486C263.965 96.6806 265.073 99.6396 265.073 103.226C265.073 106.624 263.93 109.466 261.645 111.751C259.313 114.083 256.348 115.249 252.75 115.249C249.235 115.249 246.34 114.071 244.067 111.716C241.84 109.395 240.727 106.46 240.727 102.909ZM243.733 101.907C243.733 103.431 243.979 104.931 244.471 106.407C244.975 107.872 245.684 109.149 246.598 110.239C248.555 112.606 251.028 113.79 254.016 113.79C256.325 113.79 258.217 112.923 259.694 111.188C261.217 109.407 261.979 107.063 261.979 104.157C261.979 100.724 261.059 97.8759 259.219 95.6142C257.391 93.3876 255.077 92.2744 252.276 92.2744C249.967 92.2744 247.981 93.1533 246.317 94.9111C244.594 96.7392 243.733 99.0712 243.733 101.907ZM269.186 115.073C268.424 115.073 268.043 114.856 268.043 114.423C268.043 114.083 268.254 113.913 268.676 113.913L269.538 114.001C270.17 114.001 270.61 113.696 270.856 113.087C271.125 112.407 271.26 111.124 271.26 109.237V96.8271C271.26 94.8935 271.155 93.6806 270.944 93.1884C270.745 92.6845 270.534 92.374 270.311 92.2568C270.1 92.1279 269.842 92.0634 269.538 92.0634L268.676 92.1337C268.254 92.1337 268.043 91.9638 268.043 91.624C268.043 91.1904 268.366 90.9736 269.01 90.9736C269.655 90.9736 270.264 91.0204 270.838 91.1142C271.424 91.2079 272.034 91.2548 272.667 91.2548C273.299 91.2548 273.891 91.2079 274.442 91.1142C275.004 91.0204 275.608 90.9736 276.252 90.9736C276.897 90.9736 277.219 91.1904 277.219 91.624C277.219 91.9638 277.008 92.1337 276.586 92.1337L275.743 92.0634C275.11 92.0634 274.67 92.3681 274.424 92.9775C274.155 93.6572 274.02 94.9404 274.02 96.8271V100.817H286.448V96.8271C286.448 94.8935 286.342 93.6806 286.131 93.1884C285.932 92.6845 285.721 92.374 285.499 92.2568C285.288 92.1279 285.03 92.0634 284.725 92.0634L283.864 92.1337C283.442 92.1337 283.231 91.9638 283.231 91.624C283.231 91.1904 283.553 90.9736 284.198 90.9736C284.842 90.9736 285.452 91.0204 286.026 91.1142C286.612 91.2079 287.221 91.2548 287.854 91.2548C288.487 91.2548 289.079 91.2079 289.629 91.1142C290.192 91.0204 290.795 90.9736 291.44 90.9736C292.084 90.9736 292.407 91.1904 292.407 91.624C292.407 91.9638 292.196 92.1337 291.774 92.1337L290.93 92.0634C290.297 92.0634 289.858 92.3681 289.612 92.9775C289.342 93.6572 289.208 94.9404 289.208 96.8271V109.237C289.208 111.147 289.307 112.354 289.506 112.858C289.717 113.362 289.928 113.679 290.139 113.808C290.362 113.936 290.625 114.001 290.93 114.001L291.774 113.913C292.196 113.913 292.407 114.083 292.407 114.423C292.407 114.856 292.032 115.073 291.282 115.073C290.895 115.073 290.485 115.038 290.051 114.968C289.383 114.862 288.663 114.81 287.889 114.81C287.116 114.81 286.43 114.851 285.833 114.933C285.235 115.026 284.749 115.073 284.374 115.073C283.612 115.073 283.231 114.856 283.231 114.423C283.231 114.083 283.442 113.913 283.864 113.913L284.725 114.001C285.358 114.001 285.797 113.696 286.043 113.087C286.313 112.407 286.448 111.124 286.448 109.237V102.487H274.02V109.237C274.02 111.147 274.12 112.354 274.319 112.858C274.53 113.362 274.741 113.679 274.952 113.808C275.174 113.936 275.438 114.001 275.743 114.001L276.586 113.913C277.008 113.913 277.219 114.083 277.219 114.423C277.219 114.856 276.844 115.073 276.094 115.073C275.708 115.073 275.297 115.038 274.864 114.968C273.458 114.745 272.25 114.704 271.243 114.845C270.247 114.997 269.561 115.073 269.186 115.073ZM297.522 114.81C296.924 114.81 296.362 114.851 295.834 114.933C295.319 115.026 294.756 115.073 294.147 115.073C293.549 115.073 293.25 114.88 293.25 114.493C293.25 114.095 293.526 113.895 294.077 113.895C294.651 113.895 295.061 113.79 295.307 113.579C295.706 113.216 296.098 112.624 296.485 111.804C296.872 110.983 297.229 110.216 297.557 109.501C297.897 108.786 298.284 107.954 298.717 107.005C299.151 106.044 299.625 104.977 300.141 103.806C300.668 102.622 301.219 101.368 301.793 100.044C303.293 96.5634 304.284 94.2255 304.764 93.0302C305.245 91.8232 305.508 91.1552 305.555 91.0263C305.614 90.8974 305.672 90.7802 305.731 90.6747C305.883 90.4286 306.012 90.3056 306.118 90.3056C306.223 90.3056 306.311 90.3232 306.381 90.3583C306.452 90.3818 306.528 90.4345 306.61 90.5165C306.786 90.7392 306.961 91.0732 307.137 91.5185C307.313 91.9521 307.547 92.5439 307.84 93.2939C308.145 94.0439 308.491 94.8935 308.877 95.8427C309.264 96.7919 309.674 97.8115 310.108 98.9013C310.542 99.9911 310.975 101.081 311.409 102.171C311.854 103.249 312.282 104.298 312.692 105.317C313.114 106.337 313.489 107.257 313.817 108.077C314.825 110.526 315.469 111.991 315.75 112.472C316.032 112.952 316.266 113.286 316.454 113.474C316.747 113.755 317.18 113.895 317.754 113.895C318.329 113.895 318.616 114.095 318.616 114.493C318.616 114.88 318.247 115.073 317.508 115.073C317.192 115.073 316.917 115.056 316.682 115.02C316.459 114.997 316.231 114.974 315.997 114.95C315.317 114.856 314.713 114.81 314.186 114.81L310.793 115.073C310.032 115.073 309.651 114.856 309.651 114.423C309.651 114.071 309.862 113.895 310.284 113.895L311.338 114.018C311.784 114.018 312.077 113.925 312.217 113.737C312.358 113.538 312.428 113.292 312.428 112.999C312.428 112.448 312.194 111.593 311.725 110.433L310.266 106.776H300.51C300.229 107.479 299.965 108.124 299.719 108.71C299.485 109.296 299.268 109.864 299.069 110.415C298.752 111.306 298.594 112.009 298.594 112.524C298.594 113.028 298.682 113.403 298.858 113.649C299.045 113.884 299.391 114.001 299.895 114.001L300.95 113.913C301.372 113.913 301.583 114.083 301.583 114.423C301.583 114.856 301.202 115.073 300.44 115.073L297.522 114.81ZM309.668 105.282L305.485 94.8056C304.676 96.8564 303.229 100.349 301.143 105.282H309.668ZM320.708 115.073C319.969 115.073 319.6 114.868 319.6 114.458C319.6 114.036 319.846 113.825 320.338 113.825C321.077 113.825 321.598 113.714 321.903 113.491C322.5 113.058 322.852 112.313 322.958 111.259C322.981 111.013 323.004 110.638 323.028 110.134C323.063 109.63 323.098 109.044 323.133 108.376C323.18 107.696 323.221 106.952 323.256 106.143C323.292 105.323 323.327 104.485 323.362 103.63C323.409 102.763 323.45 101.895 323.485 101.028C323.52 100.161 323.549 99.3349 323.573 98.5497C323.631 96.5927 323.661 95.3564 323.661 94.8408C323.661 94.3251 323.62 93.9208 323.538 93.6279C323.467 93.3349 323.362 93.0947 323.221 92.9072C322.963 92.579 322.547 92.374 321.973 92.2919C320.965 92.1513 320.461 91.9345 320.461 91.6415C320.461 91.4423 320.532 91.2841 320.672 91.1669C320.825 91.038 321.018 90.9736 321.252 90.9736L324.012 91.2197L325.559 91.1494C325.84 91.1494 326.075 91.2724 326.262 91.5185C326.45 91.7529 326.661 92.1044 326.895 92.5732L335.403 110.204C335.602 109.747 335.866 109.143 336.194 108.393C336.522 107.643 336.879 106.811 337.266 105.897C337.665 104.983 338.086 104.017 338.532 102.997C338.977 101.977 339.417 100.964 339.85 99.956C340.284 98.9482 340.7 97.9814 341.098 97.0556C341.497 96.1298 341.848 95.3095 342.153 94.5947C342.458 93.8681 342.709 93.2763 342.909 92.8193C343.108 92.3622 343.243 92.04 343.313 91.8525C343.395 91.6533 343.547 91.4716 343.77 91.3076C343.993 91.1435 344.256 91.0615 344.561 91.0615L346.213 91.1318L348.323 90.9736C349.202 90.9736 349.641 91.1904 349.641 91.624C349.641 91.8349 349.448 91.9814 349.061 92.0634C348.674 92.1337 348.346 92.1982 348.077 92.2568C347.807 92.3154 347.555 92.4033 347.321 92.5204C346.782 92.8134 346.512 93.2997 346.512 93.9794L347.409 111.188C347.502 112.7 348.071 113.556 349.114 113.755C349.407 113.802 349.694 113.825 349.975 113.825C350.479 113.825 350.731 114.036 350.731 114.458C350.731 114.868 350.362 115.073 349.624 115.073C349.331 115.073 349.079 115.056 348.868 115.02C348.657 114.997 348.446 114.974 348.235 114.95C347.602 114.856 347.028 114.81 346.512 114.81L342.768 115.073C342.006 115.073 341.625 114.856 341.625 114.423C341.625 114.06 341.901 113.878 342.452 113.878C343.002 113.878 343.401 113.837 343.647 113.755C343.905 113.661 344.092 113.52 344.209 113.333C344.374 113.052 344.456 112.39 344.456 111.347V109.694C344.456 108.897 344.397 107.28 344.28 104.843C344.163 102.405 344.081 100.665 344.034 99.622C343.94 97.4189 343.852 95.749 343.77 94.6122L335.456 113.667C335.151 114.358 334.875 114.704 334.629 114.704C334.465 114.704 334.325 114.622 334.208 114.458C334.102 114.282 333.956 114.007 333.768 113.632L325.26 96.1064C324.815 102.071 324.592 107.526 324.592 112.472C324.592 113.433 325.372 113.913 326.93 113.913C327.352 113.913 327.563 114.083 327.563 114.423C327.563 114.856 327.182 115.073 326.42 115.073L323.573 114.81C322.975 114.81 322.413 114.851 321.885 114.933C321.358 115.026 320.965 115.073 320.708 115.073ZM344.297 93.3994L344.315 93.3818L344.297 93.3994ZM354 115.073C353.356 115.073 353.034 114.856 353.034 114.423C353.034 114.083 353.245 113.913 353.667 113.913L354.528 114.001C355.184 114.001 355.629 113.72 355.864 113.157C356.122 112.513 356.25 111.224 356.25 109.29V96.8271C356.25 94.9052 356.157 93.6982 355.969 93.206C355.793 92.7021 355.594 92.3857 355.372 92.2568C355.149 92.1279 354.868 92.0634 354.528 92.0634L353.667 92.1337C353.245 92.1337 353.034 91.9638 353.034 91.624C353.034 91.1904 353.344 90.9736 353.965 90.9736C354.598 90.9736 355.114 90.9911 355.512 91.0263C355.922 91.0497 356.333 91.079 356.743 91.1142C357.833 91.2079 358.688 91.2548 359.309 91.2548C359.942 91.2548 360.61 91.2431 361.313 91.2197C362.016 91.1845 362.801 91.1494 363.668 91.1142C365.954 91.0204 367.536 90.9736 368.415 90.9736C369.305 90.9736 369.797 91.0263 369.891 91.1318C369.997 91.2372 370.049 91.3837 370.049 91.5712C370.049 91.747 370.043 91.9169 370.032 92.081C370.032 92.2451 370.026 92.4267 370.014 92.6259C370.002 92.8954 369.967 93.2997 369.909 93.8388C369.85 94.3661 369.78 94.7236 369.698 94.9111C369.616 95.0869 369.499 95.1747 369.346 95.1747C369.194 95.1747 369.088 95.1396 369.03 95.0693C368.971 94.9872 368.889 94.8115 368.784 94.5419C368.69 94.2607 368.514 93.997 368.256 93.7509C368.01 93.4931 367.618 93.2822 367.079 93.1181C366.024 92.8017 364.073 92.6435 361.225 92.6435H359.661C359.379 92.6435 359.198 92.6845 359.116 92.7665C359.045 92.8486 359.01 93.0361 359.01 93.329V100.729C360.405 100.893 361.559 100.976 362.473 100.976C363.399 100.976 364.055 100.97 364.442 100.958C364.84 100.946 365.168 100.911 365.426 100.852C365.883 100.77 366.211 100.565 366.411 100.237C366.809 99.6161 367.131 99.3056 367.377 99.3056C367.694 99.3056 367.852 99.4697 367.852 99.7978L367.237 102.294L367.307 103.63C367.307 104.474 367.108 104.895 366.709 104.895C366.37 104.895 366.2 104.673 366.2 104.227C366.2 103.77 366.17 103.431 366.112 103.208C366.065 102.985 365.918 102.81 365.672 102.681C365.297 102.493 364.383 102.399 362.93 102.399C361.477 102.399 360.17 102.464 359.01 102.593V106.759C359.01 109.349 359.069 111.487 359.186 113.175C360.135 113.386 361.167 113.491 362.28 113.491C363.393 113.491 364.342 113.462 365.127 113.403C365.924 113.345 366.61 113.227 367.184 113.052C368.321 112.712 369.159 112.061 369.698 111.101C369.932 110.679 370.167 110.468 370.401 110.468C370.635 110.468 370.752 110.638 370.752 110.977C370.752 111.118 370.711 111.3 370.629 111.522C370.536 111.827 370.401 112.284 370.225 112.893C370.049 113.491 369.915 113.925 369.821 114.194C369.727 114.464 369.622 114.669 369.504 114.81C369.329 115.044 368.983 115.161 368.467 115.161C367.952 115.161 367.454 115.155 366.973 115.143C366.493 115.143 365.989 115.138 365.461 115.126C364.852 115.102 363.909 115.056 362.631 114.985C359.444 114.833 357.575 114.78 357.024 114.827C356.473 114.874 356.057 114.909 355.776 114.933C355.495 114.968 355.219 114.997 354.95 115.02C354.68 115.056 354.364 115.073 354 115.073ZM374.514 115.073C373.752 115.073 373.372 114.856 373.372 114.423C373.372 114.083 373.583 113.913 374.004 113.913L374.866 114.001C375.569 114.001 376.043 113.608 376.29 112.823C376.489 112.155 376.588 110.96 376.588 109.237V96.8271C376.588 95.1044 376.506 93.9794 376.342 93.4521C376.178 92.913 375.979 92.5497 375.745 92.3622C375.522 92.163 375.229 92.0634 374.866 92.0634L374.004 92.1337C373.583 92.1337 373.372 91.9638 373.372 91.624C373.372 91.1904 373.694 90.9736 374.338 90.9736C374.983 90.9736 375.545 91.0204 376.026 91.1142C376.506 91.2079 376.981 91.2548 377.45 91.2548C378.692 91.2548 379.723 91.1962 380.543 91.079C381.786 90.9033 383.209 90.8154 384.815 90.8154C386.432 90.8154 388.038 91.1025 389.631 91.6767C391.237 92.2509 392.614 93.0654 393.762 94.1201C396.211 96.3583 397.436 99.2997 397.436 102.944C397.436 106.401 396.235 109.278 393.833 111.575C391.348 113.966 388.09 115.161 384.059 115.161C383.086 115.161 382.143 115.12 381.229 115.038C379.53 114.886 378.299 114.81 377.538 114.81L374.514 115.073ZM379.348 106.706C379.348 108.792 379.401 110.731 379.506 112.524C381.065 113.333 382.817 113.737 384.762 113.737C386.18 113.737 387.651 113.403 389.174 112.735C391.588 111.681 393.165 109.794 393.903 107.075C394.172 106.114 394.307 104.872 394.307 103.349C394.307 101.813 394.043 100.331 393.516 98.9013C393 97.4599 392.274 96.247 391.336 95.2626C389.426 93.2353 386.854 92.2216 383.62 92.2216C381.311 92.2216 379.987 92.5263 379.647 93.1357C379.471 93.4638 379.377 93.8388 379.366 94.2607C379.354 94.6708 379.348 95.0751 379.348 95.4736V106.706Z" fill="white"/>
</g>
<defs>
<filter id="filter0_ddddd_12_365" x="0" y="0" width="435" height="208" filterUnits="userSpaceOnUse" color-interpolation-filters="sRGB">
<feFlood flood-opacity="0" result="BackgroundImageFix"/>
<feColorMatrix in="SourceAlpha" type="matrix" values="0 0 0 0 0 0 0 0 0 0 0 0 0 0 0 0 0 0 127 0" result="hardAlpha"/>
<feOffset dy="4"/>
<feGaussianBlur stdDeviation="2"/>
<feComposite in2="hardAlpha" operator="out"/>
<feColorMatrix type="matrix" values="0 0 0 0 0 0 0 0 0 0 0 0 0 0 0 0 0 0 0.25 0"/>
<feBlend mode="normal" in2="BackgroundImageFix" result="effect1_dropShadow_12_365"/>
<feColorMatrix in="SourceAlpha" type="matrix" values="0 0 0 0 0 0 0 0 0 0 0 0 0 0 0 0 0 0 127 0" result="hardAlpha"/>
<feOffset dy="4"/>
<feGaussianBlur stdDeviation="2"/>
<feComposite in2="hardAlpha" operator="out"/>
<feColorMatrix type="matrix" values="0 0 0 0 0 0 0 0 0 0 0 0 0 0 0 0 0 0 0.25 0"/>
<feBlend mode="normal" in2="effect1_dropShadow_12_365" result="effect2_dropShadow_12_365"/>
<feColorMatrix in="SourceAlpha" type="matrix" values="0 0 0 0 0 0 0 0 0 0 0 0 0 0 0 0 0 0 127 0" result="hardAlpha"/>
<feOffset dy="4"/>
<feGaussianBlur stdDeviation="2"/>
<feComposite in2="hardAlpha" operator="out"/>
<feColorMatrix type="matrix" values="0 0 0 0 0 0 0 0 0 0 0 0 0 0 0 0 0 0 0.25 0"/>
<feBlend mode="normal" in2="effect2_dropShadow_12_365" result="effect3_dropShadow_12_365"/>
<feColorMatrix in="SourceAlpha" type="matrix" values="0 0 0 0 0 0 0 0 0 0 0 0 0 0 0 0 0 0 127 0" result="hardAlpha"/>
<feOffset dy="4"/>
<feGaussianBlur stdDeviation="2"/>
<feComposite in2="hardAlpha" operator="out"/>
<feColorMatrix type="matrix" values="0 0 0 0 0 0 0 0 0 0 0 0 0 0 0 0 0 0 0.25 0"/>
<feBlend mode="normal" in2="effect3_dropShadow_12_365" result="effect4_dropShadow_12_365"/>
<feColorMatrix in="SourceAlpha" type="matrix" values="0 0 0 0 0 0 0 0 0 0 0 0 0 0 0 0 0 0 127 0" result="hardAlpha"/>
<feOffset dy="4"/>
<feGaussianBlur stdDeviation="2"/>
<feComposite in2="hardAlpha" operator="out"/>
<feColorMatrix type="matrix" values="0 0 0 0 0 0 0 0 0 0 0 0 0 0 0 0 0 0 0.25 0"/>
<feBlend mode="normal" in2="effect4_dropShadow_12_365" result="effect5_dropShadow_12_365"/>
<feBlend mode="normal" in="SourceGraphic" in2="effect5_dropShadow_12_365" result="shape"/>
</filter>
</defs>
</svg>
